/* XPM */
static char *_c4afa06e9a64e0cc748f7f772d160b3HI9Y9CKFhEc3QkcG[] = {
/* columns rows colors chars-per-pixel */
"64 64 126 2 ",
"   c #020303",
".  c #040708",
"X  c #050808",
"o  c #090A0B",
"O  c #0C0E10",
"+  c #0D1011",
"@  c #00151B",
"#  c #101415",
"$  c #131618",
"%  c #15191A",
"&  c #181D1E",
"*  c #001D25",
"=  c #001F28",
"-  c #1A1F20",
";  c #04232C",
":  c #1D2324",
">  c #1F2628",
",  c #082730",
"<  c #0C2B34",
"1  c #102F38",
"2  c #14333C",
"3  c #212729",
"4  c #232A2C",
"5  c #262E31",
"6  c #282F32",
"7  c #293234",
"8  c #2E3639",
"9  c #2E383B",
"0  c #313A3D",
"q  c #183740",
"w  c #1C3B44",
"e  c #2B3F45",
"r  c #203F48",
"t  c #2D4147",
"y  c #25444D",
"u  c #2D4349",
"i  c #284750",
"p  c #2B4A53",
"a  c #344E56",
"s  c #304F58",
"d  c #34535C",
"f  c #39575F",
"g  c #385760",
"h  c #3C5B64",
"j  c #405F68",
"k  c #45646D",
"l  c #486770",
"z  c #4B6A73",
"x  c #506F78",
"c  c #54737C",
"v  c #587780",
"b  c #5B7A83",
"n  c #607F88",
"m  c #64838C",
"M  c #688790",
"N  c #6C8B94",
"B  c #708F98",
"V  c #73929B",
"C  c #7897A0",
"Z  c #7C9BA4",
"A  c #809FA8",
"S  c #84A3AC",
"D  c #88A7B0",
"F  c #8BAAB3",
"G  c #90AFB8",
"H  c #94B3BC",
"J  c #94B3BC",
"K  c #98B7C0",
"L  c #99B8C1",
"P  c #9AB9C2",
"I  c #9BBAC3",
"U  c #9CBBC4",
"Y  c #9DBCC5",
"T  c #9EBDC6",
"R  c #9FBEC7",
"E  c #9BBAC3",
"W  c #A0BFC8",
"Q  c #A1C0C9",
"!  c #A2C1CA",
"~  c #A3C2CB",
"^  c #A4C3CC",
"/  c #A5C4CD",
"(  c #A7C6CF",
")  c #A4C3CC",
"_  c #A8C7D0",
"`  c #A8C7D0",
"'  c #A9C8D1",
"]  c #AAC9D2",
"[  c #ABCAD3",
"{  c #ADCCD5",
"}  c #AECDD6",
"|  c #AFCED7",
" . c #ACCBD4",
".. c #B0CFD8",
"X. c #B0CFD8",
"o. c #B1D0D9",
"O. c #B2D1DA",
"+. c #B3D2DB",
"@. c #B5D4DD",
"#. c #B6D5DE",
"$. c #B7D6DF",
"%. c #B4D3DC",
"&. c #B8D7E0",
"*. c #BBDAE3",
"=. c #BCDBE4",
"-. c #BDDCE5",
";. c #BEDDE6",
":. c #BFDEE7",
">. c #BDDCE5",
",. c #C0DFE8",
"<. c #C0DFE8",
"1. c #C1E0E9",
"2. c #C2E1EA",
"3. c #C3E2EB",
"4. c #C4E3EC",
"5. c #C5E4ED",
"6. c #C7E6EF",
"7. c #C4E3EC",
"8. c #C8E7F0",
"9. c #CCEBF4",
"0. c #CDECF5",
"q. c #D0EFF8",
"w. c #D3F2FB",
"e. c #D4F3FC",
"r. c #D6F5FE",
"t. c #D9F6FF",
/* pixels */
"                                      X . X X X o o o o o o o o o o o o o o o o o X X X . .                                     ",
"                                  X X o X o o o o o o o o o o o o o o o o o o o o o o o X X X                                   ",
"                                . o o o o o o o o o o o o O O O O O O O o o o o o o o o o o o X X                               ",
"                            . X X o o o o o o o o O + + + + + + + + + + + + + + O o o o o o o o X X .                           ",
"                          . X o o o o o o o O + + + # # # # # # # # # # # # # # + + + O o o o o o o X X                         ",
"                      . X X o o o o o o + + + # # # # $ $ % % % % % % % $ $ # # # # # + + O o o o o o o X                       ",
"                    . X X o o o o o O + # # # # $ % % % % % % & & % % % % % % % $ # # # # + + O o o o o o X                     ",
"                  . X X o o o o O + + # # # % % % % & & & - - - - - - - v & & % % % $ # # # + + O o o o o o X                   ",
"                . X o o o o o + + # # # % % % & & - : : : : : : : : : : N x - - & & % % $ # # # + O o o o o o X                 ",
"              . X X o o o o + + # # $ % % & - : : : > > 3 3 3 3 4 3 l v Z m k : : - & & % % $ # # + O o o o o o X               ",
"              . X o o o o + + # # % % & & : : : > 3 4 z z z c c c c V F A c 4 3 > : : - & % % $ # # + + o o o o o X             ",
"            . X o o o o + + # # % % & - : : > 4 4 4 l N N N Z Z Z Z B b c 5 5 4 4 3 > : : & & % % # # + O o o o o X X           ",
"          X X o o o o + + # # % % & : : > 4 4 4 5 z v z z Z F J J H m 8 8 7 7 7 5 k 4 3 > : - & % % # # + O o o o o X           ",
"        X X X o o o O + # # % % & : : > 4 4 5 7 f M m k k J L L L L Z l 0 9 k 9 l z c B 4 > : - & % % # # + O o o o o X         ",
"        X o o o o o + # # % % & : : 3 4 4 7 7 8 k N N l l H U R R U L C k b L R F l c V f 4 > : - & % $ # # + o o o o X         ",
"        X o o o o + # # % % & : : 3 4 5 7 Z x 0 =.5._ R R ^ [ 1.1./ ^ [ +.[ ^ ! U F V m l j 4 > : - & % $ # + + o o o o X       ",
"      . X o o o O + # # % & - : c 4 5 7 k Z N b 9.q.#./ ^ ^ [ 1.1.+.+.#.*.| / | +.+.F m c l g 4 > : & % % # # + O o o o X X     ",
"      X o o o O + # # % % - : k N N Z L ^ Z #.t.e.w.q.^ ! ! [ 1.1.4.4.1.;.[ [ *.1.,.H m m m m b 4 > : & % $ # # + o o o o X     ",
"    . X o o o + + # $ % & : > k M N S / ..| 5.r.9.1.| J F C V N m N L L L ^ ;.1.1.1./ S c c c x 4 3 : - % % # # + O o o o X     ",
"    X X o o o + # # % & - c c v c m F ! | | ;.0./ F l l h 2 2 w w p d s d b 1.1.1.1.1.*.i i g h h 4 > : & % $ # # + o o o o X   ",
"    X o o o O + # $ % & g m m m v c V W #.#.A c h d i p y w 2 2 1 2 y i y v 1.4.4.4.4.=.j k j h 7 4 4 > : & % # # + o o o o X   ",
"  . X o o o + # # % % - h m m n b g b ! | W m p 2 2 w r y y w 2 2 2 y y y l H H H H #.=.m v v b c l k > : & % $ # + O o o o X   ",
"  . X o o o + # # % & : > z b b b k N +.N p p p 1 < A V r c y 2 y y y y y i p p p p H *.! H L R F m z 4 : : % % # # + o o o X   ",
"  . o o o o + # $ % & : > 4 v b b k N +.c p p p w w N n w k p y y y y y f z N N v N  .S c [ ! / F m 5 4 > : & % # # + o o o o X ",
"  X o o o + + # % % - : 3 4 v m | | | / d b z p y p ^ ! y y y y y y y y k N [ %.J ;.4.#.s h [ [ F m 5 4 3 : & % # # + O o o o X ",
". X o o o + # # % & - : 4 4 m V +.+.L d y S N p y y b c y y y y p p p p p p g x m v v [ p w &.| F M g h d : - % $ # + O o o o X ",
". X o o o + # # % & : k v m N V +.+. .S p Z n y y y y y y y y y D L L H c h y f c V N S w w K #.D V m m v : - % $ # + O o o o X ",
". X o o o + # # % & : > t z m V +.L Z N g y y y y y y y y y p V R / [  .b j p j c Z V g w w m +.L G A c g > : & % # # O o o o X ",
". X o o o + # # % & : > 4 z m V +.D v v g y y y y y y y y y p F L R +.1.v j m [ _ 2 w w w w k _ K G S l 4 > : & % # # O o o o X ",
". X o o o + # # % & : > 4 7 x M L v w p p y y y y y y y y p g w y y V &.F F *.S g w w ; ; ; g ;.J N 7 4 4 > : & % # # O o o o X ",
". X o o O + # # % & : > 4 7 z n V j , 1 1 2 y y y y y y w 2 w 2 q w m H J L  .n y w w ; ; , z 5.F m 7 4 4 > : & % # # O o o o X ",
". X o o O + # # % & : > 4 7 l v v p @ * ; 2 w y y y y y 1 ; ; ; ; , d l A S s p w w w ; , y n ,.F b 7 4 4 > : & % # # O o o o X ",
". X o o o + # # % & : > 4 5 l v V k ; ; ; ; < y y y w ; ; ; ; ; ; ; , q p d d p w w w < 2 p M #.S m 7 4 4 : - & % # + O o o o X ",
". X o o o + # # % & : : 4 5 l v F b , ; ; * , w y y w = ; ; ; ; ; < 1 2 y p p y w w w 2 w p V #.F F S m 3 : - % $ # + O o o o X ",
". X o o o + # # % % - : 4 4 l c D S p ; ; ; ; , y y w ; 2 q 2 2 2 w w w y p p y q w w w q k ! _ S N b k 3 : & % $ # + O o o o X ",
"  X o o o O # # % % - : 3 4 l c S S y ; ; < , , y y y 2 y y y r w w w w y p p y 2 w d p p N J F N z 5 4 > : & % # # + o o o o X ",
"  X o o o O + # $ % & : > 4 l v S S y * ; w 2 2 y y y y y f k p w w r r y p b z w l Z g y Z B c 8 7 4 4 > : & % # # + o o o X   ",
"  . X o o o + # # % & - : 4 k c S F k ; * 2 y y y y y y y Z / v q w y p p s / H y Z 5.s i S m h 8 6 4 3 : - % $ # + O o o o X   ",
"  . X o o o + # # % % & : 3 4 6 N G [ p , w y y y y y y y m Z S V Z Z N f p H  .K ..N p h R m h 7 4 4 > : & % $ # + O o o o X   ",
"    X o o o O + # $ % & : > 4 4 N F | m y y y r y y y w d g k ! %.&.#.L h p V / 4.k p d F ^ m j 6 4 3 : - & % # # + o o o o X   ",
"    X o o o o + # # % % & : e h N F | ! V p i y y i y w r r p c c A R &.L c d h p p f m / L Z m l z k : & % $ # + O o o o X     ",
"    . X o o o O + # $ % & - j c N S ^  .[ Z S J f f h k j g p p p l V *.! n y h v l ^ +.! K Z V c c z - % % # # + o o o o X     ",
"      X o o o o + # # % % & : g b S [ | | U | 5.N N N V V V Z Z g d l J +.#.;.=.;.;.1.[ R H m c 4 : : & % $ # + O o o o X X     ",
"      X X o o o O + # # % % - : c Z / [ [  .#.5.5.5.1.,.;.;.,.,.N b M [ ;.;.m J 1.4.8./ K F m c > : & % % # # + o o o o X       ",
"        X o o o o + # # $ % & - : 3 l M M N V C +.8.1.| | | #.1.;.,.,.,.,.*.+.;.5.;.#.H F N m c h & % % # # + O o o o o X       ",
"        . X o o o O + # # $ % & - : > l l z c m / ;.*.[ _ _ #.,.,.,.;.#...#.;.,.;.K R S N m m b g e % $ # + O o o o o X         ",
"          X o o o o O + # # % % & - : > 4 4 4 k F #.+.! W W %.| H S J | _  .;.*.Z m N M c z l l u % $ # # + o o o o X           ",
"          . X o o o o O + # # % % & - : > 3 4 h S / / ! ! W F Z N m V F H R %.! k v M m h : & % % $ # # + O o o o o X           ",
"            X X o o o o O + # # $ % % - : : > c C F V N m m m N N k k l c S J F x k j : - & % % $ # # + O o o o o X             ",
"              X o o o o o O + # # $ % % & - : N N Z a 4 4 4 k b n u 4 4 4 c c c l : : & & % % # # # + O o o o o X               ",
"                X o o o o o O + # # # % % % & k l c l k h > 3 3 3 3 > > > : : : : & & % % $ # # + + O o o o o X X               ",
"                  X o o o o o O + + # # $ % % % & k c c k : : : : : : : : : - & & % % % # # # + + O o o o o X X                 ",
"                    X o o o o o O + + # # # $ % % % % & & & & & & & & & & & % % % $ # # # + + O o o o o o X X                   ",
"                      X o o o o o o O + + # # # # $ % % % % % % % % % % % % % $ # # # + + + o o o o o o X X                     ",
"                        X X o o o o o o O + + # # # # # # # # $ $ $ $ # # # # # # + + + O o o o o o o X X                       ",
"                          X X o o o o o o o O O + + + # # # # # # # # # # # + + + O o o o o o o o o X                           ",
"                            X X X o o o o o o o o O O + + + + + + + + + + O O o o o o o o o o o X X                             ",
"                                X X o o o o o o o o o o o o o o o o o o o o o o o o o o o o X X                                 ",
"                                    X X o o o o o o o o o o o o o o o o o o o o o o o o X X                                     ",
"                                          X X X o o o o o o o o o o o o o o o o o X X X                                         ",
"                                              X X X X X o o o o o o o o o X X X X                                               ",
"                                                          X X X X X X                                                           ",
"                                                                                                                                ",
"                                                                                                                                "
};
