/* XPM */
static char *_78b93a83e0e4679ae261f9e7064b779JE4VnnelQyd4qWqy[] = {
/* columns rows colors chars-per-pixel */
"64 64 230 2 ",
"   c #000000",
".  c #020709",
"X  c #030A0D",
"o  c #0B0E0E",
"O  c #020E11",
"+  c #090F11",
"@  c #031115",
"#  c #03151A",
"$  c #0A1619",
"%  c #04181E",
"&  c #0D1A1E",
"*  c #0A1315",
"=  c #13181A",
"-  c #051C23",
";  c #0B1D22",
":  c #121E22",
">  c #0B2126",
",  c #05232B",
"<  c #0B242B",
"1  c #072027",
"2  c #12252B",
"3  c #13282E",
"4  c #192427",
"5  c #062B36",
"6  c #0B2B34",
"7  c #062E3A",
"8  c #0A2E39",
"9  c #082731",
"0  c #132C33",
"q  c #1A2D34",
"w  c #102F38",
"e  c #05313D",
"r  c #0B313C",
"t  c #14333C",
"y  c #1C343B",
"u  c #1F3237",
"i  c #252C2E",
"p  c #232E31",
"a  c #253539",
"s  c #293539",
"d  c #333B3F",
"f  c #063542",
"g  c #0B3642",
"h  c #0B3946",
"j  c #0C3D4B",
"k  c #053B4A",
"l  c #123641",
"z  c #163A45",
"x  c #1C3B44",
"c  c #123E4A",
"v  c #1B3E49",
"b  c #233C44",
"n  c #2B3D42",
"m  c #0C404F",
"M  c #1B414C",
"N  c #11414F",
"B  c #0D4353",
"V  c #0E4A5B",
"C  c #074253",
"Z  c #124453",
"A  c #1B4653",
"S  c #1B4956",
"D  c #144B5B",
"F  c #1B4C5A",
"G  c #174957",
"H  c #19505F",
"J  c #24434C",
"K  c #2A444C",
"L  c #2D4046",
"P  c #344449",
"I  c #244954",
"U  c #2B4B54",
"Y  c #254C57",
"T  c #334D54",
"R  c #394E55",
"E  c #2B515C",
"W  c #26515E",
"Q  c #34525A",
"!  c #39535A",
"~  c #0A4F62",
"^  c #0E5366",
"/  c #145163",
"(  c #1B5364",
")  c #19596B",
"_  c #195E72",
"`  c #184F60",
"'  c #2C5966",
"]  c #225B6C",
"[  c #2C5D6C",
"{  c #285663",
"}  c #315661",
"|  c #335A65",
" . c #3A5B64",
".. c #3A5E69",
"X. c #375E6A",
"o. c #245F70",
"O. c #1C6276",
"+. c #196378",
"@. c #39616C",
"#. c #226275",
"$. c #2A6374",
"%. c #29687A",
"&. c #336473",
"*. c #3C6976",
"=. c #336B7C",
"-. c #3D6D7B",
";. c #3C6572",
":. c #2C606F",
">. c #465053",
",. c #455C62",
"<. c #46646C",
"1. c #436A75",
"2. c #446E7A",
"3. c #486B75",
"4. c #49717D",
"5. c #5F6D72",
"6. c #246D82",
"7. c #2A6D81",
"8. c #2B768B",
"9. c #2A748A",
"0. c #347284",
"q. c #3D7585",
"w. c #33768A",
"e. c #387A8D",
"r. c #2C7C93",
"t. c #227B94",
"y. c #347E93",
"u. c #3C7E91",
"i. c #326E80",
"p. c #17708A",
"a. c #4A7986",
"s. c #447A8A",
"d. c #4B7D8B",
"f. c #497683",
"g. c #557C86",
"h. c #2D829B",
"j. c #3E8295",
"k. c #34849B",
"l. c #3C889D",
"z. c #388298",
"x. c #2E8CA8",
"c. c #3B8DA5",
"v. c #358AA3",
"b. c #3C92AB",
"n. c #3A9BB7",
"m. c #39A1BF",
"M. c #53818E",
"N. c #42889C",
"B. c #478597",
"V. c #5B8996",
"C. c #578998",
"Z. c #4C808F",
"A. c #688D98",
"S. c #448CA2",
"D. c #498EA2",
"F. c #4390A6",
"G. c #4A91A5",
"H. c #4394AC",
"J. c #4C95AB",
"K. c #4E99AF",
"L. c #5492A4",
"P. c #5196AA",
"I. c #5C96A7",
"U. c #449AB3",
"Y. c #4D9BB2",
"T. c #449FB9",
"R. c #549EB4",
"E. c #5A9EB1",
"W. c #6295A4",
"Q. c #689BA9",
"!. c #769FAA",
"~. c #44A1BC",
"^. c #4DA4BD",
"/. c #52A4BC",
"(. c #5BA5BC",
"). c #5DA8BE",
"_. c #5AA1B6",
"`. c #68A5B7",
"'. c #74A8B6",
"]. c #3CA5C4",
"[. c #4BA7C1",
"{. c #49ABC7",
"}. c #55ABC4",
"|. c #5BACC4",
" X c #54ACC6",
".X c #53B2CD",
"XX c #5CB3CC",
"oX c #4AB6D5",
"OX c #53B5D2",
"+X c #5CBAD6",
"@X c #54BDDC",
"#X c #5BBDDA",
"$X c #55B9D6",
"%X c #4AB1CE",
"&X c #69AFC3",
"*X c #68B4CA",
"=X c #76B7CA",
"-X c #63BBD4",
";X c #6CBBD2",
":X c #63BED9",
">X c #74BDD2",
",X c #70AEC0",
"<X c #5DC1DE",
"1X c #64C2DD",
"2X c #6AC3DC",
"3X c #79C5DB",
"4X c #5BC5E4",
"5X c #5CCAEA",
"6X c #55C5E6",
"7X c #5ED5F7",
"8X c #62C5E2",
"9X c #6AC6E1",
"0X c #65C8E5",
"qX c #6CCAE5",
"wX c #63CCEA",
"eX c #6ACEEA",
"rX c #74CAE3",
"tX c #6CD1EE",
"yX c #67D0EE",
"uX c #73D2ED",
"iX c #7BD3EC",
"pX c #65D3F3",
"aX c #6BD5F4",
"sX c #63D7F9",
"dX c #64DAFC",
"fX c #69DAFB",
"gX c #6ED8F7",
"hX c #73D7F4",
"jX c #83C3D6",
"kX c #83D0E6",
/* pixels */
"                                                                                                                                ",
"                                                            & &                                                                 ",
"                                X .                       u Q U 3                                                               ",
"                              0 <.T 4                     R 3.Q >                                                               ",
"                          . y 4.!.g.n                     p n q                                                                 ",
"                          3 X.!.A.3.s                                                                                           ",
"                        X v d.'.Q u o                                                                                           ",
"                        ; E L.`.6                                                                                               ",
"                        ; ' I.`.q                   .                                                                           ",
"                        * E C.'.K *               4 s i             ; 0 t t 6 ; X                                               ",
"                          ; x U < q T T 3     3 R ,.P .         > E Q.,X&X&X(.S.%.c -                                           ",
"                            X ;   2 J K w w U  .Q n 4         ; J f.E.E.(.-X2X2XXXJ.q.E 0                                       ",
"                                  X 0 v U  .<.Q y &         X < M :.&.[ %.u.Y.*XqXrX*XP.-.x                                     ",
"                                  O y E 2.4.Q 0 *       . @ 1 6 r z t 6 8 c ] j.|.qXuX2X_.&.;                                   ",
"                                X y @.g.a.Q 0 % # X @ ; > < 6 5 5 6 < < < 6 f D 8.~.8XeXXX0.6                                   ",
"                              - I d.I.M.} w ; - > < < 0 6 6 5 6 6 6 5 6 6 6 6 7 B O.c. XXXJ.' 3             2 :                 ",
"                          O 6 { P.*XL.' r 6 8 5 5 6 8 w 6 6 5 5 7 5 5 5 8 8 8 8 5 f / w.J._.C.| w .         R K 2               ",
"                        - c 0.).2XY.$.c 8 8 5 6 5 5 8 5 5 r j Z Z B B j j g r 7 7 e f j D ] s.M.@.y .       ,.<.L .             ",
"                      < Y j.XXqX-X0.Z e 7 8 8 8 7 7 7 7 f ) y.F.H.F.c.l.y.%.D g 7 e e e e r v X.4.X.y       Q 1.T :             ",
"                    < { D.:XaXwXc.D e 7 7 7 8 8 7 7 f j O.H.OX@X@X<X8X4X#XH.#.h 7 e e e 7 6 1 t @.a.| <     x  .T :             ",
"                  > ' P.1XaXpX$X+.j 7 7 7 7 7 7 f m / 6.T.#X@X].n.m.OX5XpX.X8.V e e 7 7 5 8 6 < I s.s.U     6 U K :             ",
"                > [ _.9XaXfX5Xn.B f 7 7 8 8 7 g ) h.[.1XaX4X].t.+._ +.].5X4X[.8.V e 7 7 5 r r 5 N 0.L.d.6   - x b $             ",
"              % S E.9XaXdXsX@Xh.f 7 7 8 8 5 g ] H.#XwXtXtXeX+X}.R.S.9.n.6XpXwX.Xk.D e 5 7 8 r 7 f o.L.Q.X.. @ u a &             ",
"              > $.;XhXpX7X5XoXr.e 7 8 8 e f ( F.:XeX+XU.b.H.K.R.(.(.H..XwXfXsXpXOXy.D f 7 8 8 7 e S Z.`.L.r % 3 p $             ",
"              1 ] ;XhXwX@XoX%Xk.f 8 8 8 e D k.-XtX8XU.) D ` ( $.0.u.N.^.<XpXsXsXpX.X8.D e 8 5 7 7 j =.E.&X#.< ; : .             ",
"              O S *XiX$Xm.].oXH.j r r r j 7. XtXaX+Xy.h 7 7 r h c S ( 6.c.{.6X7XpXwX/.%.j e 5 5 5 g ( N.;XD.t .                 ",
"                t `.rX[.x.].6X[.V f 7 h ( F.1XtXtX X6.e 6 6 5 5 5 7 e k / 8.~.4X5X<X2XF.) f 7 5 8 7 j %.|.&Xb                   ",
"                2 V.>X}.n.%X7XOX^ f e Z w.Y..X<X0X~._ 7 6 8 r r f f e 7 7 m 6.}..XT.+XXXy.j 7 8 8 8 r S j.,XJ .                 ",
"                * 4.&X-XoX6XdX4X+.k f ) H.k.p.T.:XU.~ e 5 8 8 r r r 7 r r g ( G.U.t.~.2X^./ 7 , 6 8 r f H C.y                   ",
"                . I E.eXsX7XdX4Xr.j D k.^.r.O./.-XS.C 7 5 5 8 8 r 7 5 , - - v Z.P.8.v.XXXX7.< @ % , 5 e g v *                   ",
"                  t D.wXfXdXdXwXk.Z #.T..Xr.6.XX-Xj.k 7 5 8 8 r g M E > @ @ 0 ;.Z.w.r..X2XN.6 X ; t t 6 9 <                     ",
"                  - e.1XdXdXdXwXz./ e..X@Xx.x.1X-Xe.f 7 8 8 5 5 g { M.u # O ; J -.j.v.OXeXR.l O 2 n y > @ $                     ",
"                    $.}.pXfXaX9X0.D w.XX4X{.{.eX:Xe.k 7 8 5 6 , r [ '.X.3 O O 3 ' S.~.4XaXXXZ # : a q O   .                     ",
"                    S J.9XhXqX|.F 8 ( S.+X4X5XaX1Xz.k 7 8 6 - - 6 &.jXW.K $ X # A F.#X7XfX+XF % . + .                           ",
"                    l j.;X3X).=.1 @ 1 F N.:XgXaX0Xb.V 7 , - # # 8 =.3X>X*.0 @ O l k.8XdXsX+X( -           & 4 .                 ",
"                    1 =.`.`.q.9 O . X - M N.2XaXeX~._ g , # O % c 8.XX;XD.W ; O 8 8.<XfXfX+XF -         $ ! ,.s                 ",
"                    X } W.W.:.% X .   X - A l.2XtXOXv.#.Z r < r ] v.b. X|.q.0 % S H.8XpXeX|.A X         y Q.A.T +               ",
"                      J M.`.s.7 O .     X - F G.2XeX+X XU.l.e.y.H.OX{.:X;Xs.t 6 =.XX#X[.c.e.8         < [ jX'. .;               ",
"                      0 1.`.).%.- X .   . X > { K.9XaXaXpXwX4X@X8XtX1X|.C.} t Y P.9X[.6.V Z -       % A G.kX=X@.>               ",
"                      X I C.>X_.A ; X .   . O < [ Y.9XaXfXsXpXyXqX-XY.%.c 6 z s.;X2Xv./ 7 6 >     X t q.>XkX=X1.2               ",
"                        3 &.`.3XL.M % X     . X < { P.qXhXhXeX-XJ.$.c 6 - 5 ] _.rX*X6.j 5 5 6 - O w *.`.jX>X=X2.0               ",
"                        X v Z.3X3Xq.t @ .       X < { S.^.^.F.w.( g , 1 , G l.-XrXY.( f 8 6 6 1 6 I -.d.2.;.*.J ;               ",
"              . 0 b 2   O < [ *XiX/.[ > X .     X - r D #._ / m r 5 5 6 h %. XeX+Xy.Z e 8 6 6 > t I I x < ; > %                 ",
"              0 -.C.} < @ > { ).uX9XN.v # X X X # 1 8 g h g e 7 7 7 e 7 ) F.8XtX[.O.h 7 8 6 6 > < 3 ; .                         ",
"              J E.=X-.0 - t =.-XaXaX X=.0 # @ # 1 6 8 7 5 7 7 7 e h j V k.XXpXwXb.V e 7 7 6 < % .               = 4 .           ",
"            . U &X&X&.< > I G.uXpXdXwXY.] 8 , , 6 5 5 8 7 e f m D _ 6.h..XeXpX#Xy.k 7 7 8 8 < .               o d >.p           ",
"              J E.N.M # < | _.iXpX7XfX0XU.#.h e 7 8 8 8 7 h D 6.c.{.6XwXpXgXeX[.#.e 7 7 g v <                 4 >.5.P           ",
"              y a.I.U $ * v B.kXhXwXpXaXqX}.7.j 7 5 5 9 5 ) J.:XtXpXdXfXaXaX9XF.( e r c ' 1.0                     .             ",
"              X y Q q     $ x &.0.#.8.F.|.-X|.k._ ~ ~ ~ ) v.#XpXdXdXdXgXuXiX;Xe.h 1 6 W *.} &                                   ",
"                . 2 X       $ y J t l F i.J.XXXX~.b.H.H.U.$XpXdXdXsXpX[.G.N.q.F 1 X < | -.v .                                   ",
"                              : d : X - g ] l.}.-X1X:X.X#XwXfXdXsX0X^.#.S c l > .   ;  .2.t                                     ",
"                              . s .     @ 6 S w./.1X<Xn.OXwXfXfX0X/.#.8 % X .       $  .f.z                                     ",
"                                o         . - c 7.^.+Xn.{.5XaXeX/.=.,               & ..f.z .                                   ",
"                                              , B l.2X+X<XeXeX|.0.6               . q 3.2.6                                     ",
"                                              @ r 0.*XqXaXeX|.0.l                 0 X.4.! X                                     ",
"                      .               + p 4     - M q.|.2X(.=.l X             . 0 | M.@.3                                       ",
"                    a E b ;           = d p       - l :.q.[ t X       X - , 6 M 2.C.a.b                                         ",
"                    T M.a.U :         . i 4         . - 0 > .       + J W { &.d.W.V.U ;                                         ",
"                    x f.W.V. .>                                   . n 4.d.M.W.Q.g.I ;                                           ",
"                    X J a.Q.Q.4.<                                 q ,.U b b K L q .                                             ",
"                      X b 1.V.V.T &                               2 L ;                                                         ",
"                          2 J ..R :                               . X                                                           ",
"                            X 4 4   . =                                                                                         ",
"                                      .                                                                                         "
};
