/* XPM */
static char *a51a99db25404849a7a0bfcff9bee533jN8NpnlVIPuRjKUI[] = {
/* columns rows colors chars-per-pixel */
"16 16 198 2 ",
"   c #050704",
".  c #030203",
"X  c #020202",
"o  c #030302",
"O  c #030603",
"+  c #183316",
"@  c #2C5428",
"#  c #1C3519",
"$  c #060A05",
"%  c #040603",
"&  c #010001",
"*  c #0F1C0E",
"=  c #294026",
"-  c #142D11",
";  c #386F2E",
":  c #223E1E",
">  c #060E06",
",  c #010201",
"<  c #22341F",
"1  c #1B3019",
"2  c #030503",
"3  c #050604",
"4  c #010601",
"5  c #10240F",
"6  c #36702F",
"7  c #32662B",
"8  c #123D0C",
"9  c #0E3808",
"0  c #113509",
"q  c #2A5722",
"w  c #030502",
"e  c #030402",
"r  c #030403",
"t  c #182916",
"y  c #1D331A",
"u  c #1C3819",
"i  c #438639",
"p  c #4D9542",
"a  c #091C07",
"s  c #031302",
"d  c #081C04",
"f  c #0E2608",
"g  c #509443",
"h  c #1F3F1B",
"j  c #030602",
"k  c #020503",
"l  c #1C321A",
"z  c #45853F",
"x  c #61BF54",
"c  c #2F6128",
"v  c #10280D",
"b  c #306128",
"n  c #2D5F26",
"m  c #0D250B",
"M  c #0D210A",
"N  c #50A740",
"B  c #295221",
"V  c #030703",
"C  c #020302",
"Z  c #122312",
"A  c #57AC4E",
"S  c #2E5E28",
"D  c #0E2809",
"F  c #59BC48",
"G  c #67E757",
"H  c #52C343",
"J  c #53AA46",
"K  c #0B3007",
"L  c #143B0B",
"P  c #4AA939",
"I  c #22461E",
"U  c #132911",
"Y  c #010401",
"T  c #1C3119",
"R  c #4E9444",
"E  c #103704",
"W  c #0E3302",
"Q  c #54C144",
"!  c #4DB13D",
"~  c #175711",
"^  c #63CF50",
"/  c #358F2A",
"(  c #14420B",
")  c #17540F",
"_  c #54B148",
"`  c #193515",
"'  c #1B281A",
"]  c #040604",
"[  c #010102",
"{  c #386E30",
"}  c #49883E",
"|  c #103803",
" . c #0E3301",
".. c #50B03D",
"X. c #51B03E",
"o. c #0D3B03",
"O. c #2C711E",
"+. c #43B333",
"@. c #205B16",
"#. c #104207",
"$. c #56B14B",
"%. c #1A3618",
"&. c #141E13",
"*. c #2A5224",
"=. c #316129",
"-. c #478C3B",
";. c #16400A",
":. c #0E3303",
">. c #2B6F1F",
",. c #4CA03E",
"<. c #114006",
"1. c #37862A",
"2. c #4EBE3D",
"3. c #1A4F0E",
"4. c #1F5C13",
"5. c #4A9D3F",
"6. c #0A1B0B",
"7. c #020102",
"8. c #040504",
"9. c #010202",
"0. c #182A16",
"q. c #478B3B",
"w. c #3B7A31",
"e. c #0F3B07",
"r. c #0C3603",
"t. c #0F4407",
"y. c #28761E",
"u. c #62D451",
"i. c #2A791F",
"p. c #19520F",
"a. c #52B642",
"s. c #439237",
"d. c #071307",
"f. c #070B06",
"g. c #32642A",
"h. c #3D892E",
"j. c #28781E",
"k. c #3D9031",
"l. c #47983A",
"z. c #317327",
"x. c #0B2D07",
"c. c #1F5818",
"v. c #53B747",
"b. c #255021",
"n. c #030904",
"m. c #010101",
"M. c #060B05",
"N. c #2D4D28",
"B. c #3C7534",
"V. c #438E33",
"C. c #6CEF56",
"Z. c #58BF48",
"A. c #1C4017",
"S. c #264323",
"D. c #0F200E",
"F. c #32712C",
"G. c #1E561B",
"H. c #051205",
"J. c #1C2E1A",
"K. c #010701",
"L. c #11200F",
"P. c #265C1E",
"I. c #337E26",
"U. c #2B6522",
"Y. c #0E2B0B",
"T. c #0E320B",
"R. c #34712B",
"E. c #2A5F21",
"W. c #12330F",
"Q. c #22491D",
"!. c #4C7F46",
"~. c #091408",
"^. c #192C16",
"/. c #090F07",
"(. c #040703",
"). c #20471A",
"_. c #388C2C",
"`. c #51B940",
"'. c #5BB54C",
"]. c #4D8B46",
"[. c #173315",
"{. c #244821",
"}. c #122610",
"|. c #081607",
" X c #010200",
".X c #040503",
"XX c #040804",
"oX c #1E4019",
"OX c #3E8038",
"+X c #122E0E",
"@X c #081A06",
"#X c #0B150A",
"$X c #060805",
"%X c #010301",
"&X c gray1",
"*X c #020402",
"=X c #020502",
"-X c #040704",
/* pixels */
"      . X o O + @ # $           ",
"%     & * = - ; : > % % , < 1 2 ",
"    3 4 5 6 7 8 9 0 q w       e ",
"r t y u i p a s d f g h j     % ",
"  k l z x c v b n m M N B V C 3 ",
"    Z A S D F G H J K L P I U Y ",
"  3 T R E W Q ! ~ ^ / ( ) _ ` ' ",
"] [ { } |  ...X.o.O.+.@.#.$.%.&.",
"r *.=.-.;.:.>.,.<.1.2.3.4.5.6.7.",
"8.9.0.q.w.e.r.t.y.u.i.p.a.s.d.& ",
"    f.T g.h.j.k.l.z.x.c.v.b.n.m.",
"w   M.N.B.V.C.Z.A.S.D.F.G.H.J.K.",
"m., , T L.P.I.U.Y.T.R.E.W.Q.!.~.",
"[ m.m.^./.(.)._.`.'.].[.{.}.|.j ",
" Xm., , .X  XXoXOX+X@X#X$X%Xm.&X",
"*X        =X    -X3             "
};
