/* XPM */
static char *af307594befb48b5fc1900d189bb4a476f1iXDF0Ep8Wdcxd[] = {
/* columns rows colors chars-per-pixel */
"16 16 16 1 ",
"  c #0E0D0E",
". c #D2202C",
"X c #EADFD1",
"o c #7C776F",
"O c #45433E",
"+ c #484641",
"@ c #42403B",
"# c #43413C",
"$ c #B3AAA1",
"% c #46443F",
"& c #7A756D",
"* c #7B766E",
"= c #0A7030",
"- c #EBA724",
"; c #494742",
": c #4B4944",
/* pixels */
"                ",
"   .....        ",
"     ....       ",
"      ..        ",
"    XXXooooo    ",
"    XO+++++@    ",
"    o#XXX$$$$   ",
"    oOX $ $ $   ",
"    o%$ $ $ $   ",
"    o+$ $ $ $   ",
"    o&$$$$$$$   ",
"    ooooo*o*    ",
"   ===------    ",
"   ===-         ",
"  ====- ++;:    ",
"  ----- ;ooo    "
};
