/* XPM */
static char *_2a201d8c79e4e50af1416266b33ec84pfugpWkDfDAyvkLf[] = {
/* columns rows colors chars-per-pixel */
"64 64 205 2 ",
"   c #010202",
".  c #050709",
"X  c #06090A",
"o  c #090C0D",
"O  c #060711",
"+  c #070912",
"@  c #090B13",
"#  c #0A0E1B",
"$  c #0C1214",
"%  c #0D141A",
"&  c #0D191B",
"*  c #101617",
"=  c #101619",
"-  c #121A1D",
";  c #0D1223",
":  c #0F172B",
">  c #0F182D",
",  c #0C1827",
"<  c #101726",
"1  c #141D22",
"2  c #191F21",
"3  c #121B2C",
"4  c #101728",
"5  c #0E1F35",
"6  c #131D32",
"7  c #162124",
"8  c #192326",
"9  c #15252B",
"0  c #1B262A",
"q  c #1D292D",
"w  c #152135",
"e  c #1E2B32",
"r  c #17253B",
"t  c #18273D",
"y  c #1A293E",
"u  c #192536",
"i  c #1E333A",
"p  c #202B2F",
"a  c #212E32",
"s  c #202F3A",
"d  c #233236",
"f  c #25353A",
"g  c #28363C",
"h  c #25393D",
"j  c #28393E",
"k  c #313639",
"l  c #0F2748",
"z  c #1B2C44",
"x  c #1C2E48",
"c  c #142844",
"v  c #1D3046",
"b  c #1E324B",
"n  c #1C3A46",
"m  c #13335A",
"M  c #183B58",
"N  c #233545",
"B  c #213B42",
"V  c #2B3C43",
"C  c #20354E",
"Z  c #293E4B",
"A  c #313F43",
"S  c #233B54",
"D  c #213751",
"F  c #193C60",
"G  c #1E4458",
"H  c #2D4147",
"J  c #22404D",
"K  c #2D424A",
"L  c #3B4244",
"P  c #31454B",
"I  c #33484F",
"U  c #384649",
"Y  c #2C4D56",
"T  c #254359",
"R  c #2A455C",
"E  c #264B5C",
"W  c #2B4C5C",
"Q  c #274454",
"!  c #354B53",
"~  c #384E55",
"^  c #364B55",
"/  c #2A5159",
"(  c #395157",
")  c #34545C",
"_  c #3A525A",
"`  c #1F4862",
"'  c #254566",
"]  c #2D4B61",
"[  c #2A4969",
"{  c #304D64",
"}  c #2B5364",
"|  c #25506B",
" . c #2E5A6A",
".. c #325166",
"X. c #3E5861",
"o. c #335569",
"O. c #345A6D",
"+. c #385765",
"@. c #2A5B70",
"#. c #345E72",
"$. c #3A5D71",
"%. c #355473",
"&. c #35626B",
"*. c #336274",
"=. c #3B6275",
"-. c #326B74",
";. c #3C6C7B",
":. c #376D79",
">. c #3D747E",
",. c #36737A",
"<. c #515558",
"1. c #4B5457",
"2. c #415C65",
"3. c #455969",
"4. c #515F63",
"5. c #445E77",
"6. c #45636C",
"7. c #48666E",
"8. c #54676A",
"9. c #496671",
"0. c #4B6B74",
"q. c #46657A",
"w. c #436677",
"e. c #47737D",
"r. c #51727C",
"t. c #5B737B",
"y. c #536970",
"u. c #647377",
"i. c #757979",
"p. c #636A6B",
"a. c #3F7781",
"s. c #3D7A83",
"d. c #476E80",
"f. c #407680",
"g. c #417B85",
"h. c #4C7984",
"j. c #537682",
"k. c #567984",
"l. c #597D8A",
"z. c #5C7A85",
"x. c #5A6B87",
"c. c #647686",
"v. c #6B7688",
"b. c #3F8187",
"n. c #3F8489",
"m. c #3E8B8E",
"M. c #41858B",
"N. c #4C8189",
"B. c #41898D",
"V. c #54838C",
"C. c #5D828D",
"Z. c #5E8591",
"A. c #5C8A93",
"S. c #588D99",
"D. c #518891",
"F. c #439595",
"G. c #439C99",
"H. c #5D929F",
"J. c #688387",
"K. c #638B95",
"L. c #648E9A",
"P. c #64909D",
"I. c #69929D",
"U. c #769A9E",
"Y. c #75999E",
"T. c #7C839A",
"R. c #45A39D",
"E. c #6294A1",
"W. c #6B96A2",
"Q. c #6B98A5",
"!. c #7B9DA2",
"~. c #7996A2",
"^. c #78A5B0",
"/. c #82A2A5",
"(. c #8EAAAF",
"). c #94ADAF",
"_. c #94AEB1",
"`. c #96B1B3",
"'. c #A0ACAD",
"]. c #AAABAA",
"[. c #A3B9BA",
"{. c #AABABB",
"}. c #BDBDBC",
"|. c #8D8F8D",
" X c #80B5C4",
".X c #B1B9C0",
"XX c #AEC1C2",
"oX c #B5C5C6",
"OX c #BDC8C6",
"+X c #BBCACA",
"@X c #C5CECC",
"#X c #CBD1CE",
"$X c #CCD5D3",
"%X c #CFD8D6",
"&X c #D3D9D6",
"*X c #DBDFDB",
"=X c #D2D9D6",
"-X c #DDE1DD",
";X c #E3E6E2",
":X c #E8EBE7",
">X c #EBEDE9",
",X c #EBEDE9",
"<X c #E5E8E4",
"1X c #EFF0EC",
"2X c #F0F1EC",
/* pixels */
"                                                                                                                                ",
"                                                                                                                                ",
"                                                                                                                                ",
"                                                                                                                                ",
"                                                                                    o @ o $ o                                   ",
"                                                                                6.r.j.k.k.a 8 o                                 ",
"                                                                            . S.>.V./.A.K.Q.k.$ .                               ",
"                                            l.j.j.j.P.              . . . . V.>.V.[.oX`.OX[.!.Q.* @ .                           ",
"                                            0.9 8.|.'.Q.E.E.H.. . . . X o o A.) !.@X`.%X>X,X*X{.z.0 @                           ",
"                                          I.) J.@X[.!.[.XXXXXXS.o @ @ $ $ $ _ 6.U y.XX>X>X,X,X>X].y.- .                         ",
"                                          k.B _.XX[.{.-X>X>X1X>.$ $ = - - - - ( C.6.'.,X>X>X1X1X;XL q $ .                       ",
"                                        L.+.&._.%X-X>X>X>X,XJ.>.- 1 7 8 8 q q q q 2.u.}.2X,XT.!.=XL f - o .                     ",
"                                      . l.B !.%X>X>X>X>X,XI.8 8 0 q q a a d f f g g I k 3.5.w.f.$XL d - o . .                   ",
"                                    . K.Y :./.*X>X>X>X,XJ.q a a d f f j V V H K P P P K Q ;.e.f.$XL 0 - @ X .                   ",
"                                  . . I.B f./.*X>X>X2X!.I g g j j s.g.g.g.g.g.H.~ ( ( ~ Y f.f.[.-XL 8 = $ . .                   ",
"                                . . o I.B f./.*X>X*Xi.Q. X~ ~ h D.-X-X-X-X=X@X_.A.0.f 4 Y f.V.=XOXk 0 - $ o .                   ",
"                                . o $ I.B f./.*X,Xi.K. X^.V d h.-X>X>X>X>X>X:X;X-X$Xc.[ #.;.{.%XC.K q - $ X .                   ",
"                              . . o $ I.B f./.*X,Xp.k.^._ :.h.-X>X>X>X>X>X>X>X>X>X>X;X$Xv.[ .XC.i L.q - $ . .                   ",
"                              . X @ = I.B f.U.%X,X!.i 1 &.N.;X>X>X>X>X>X>X>X>X>X>X>X>X>X&X!.' % a 7.q - @ .                     ",
"                              . o $ - I.B f.f._.:X(.h } >.;X>X>X>X>X>X>X>X>X>X>X>X>X>X>X>X=XN.1 Z.f 0 - o .                     ",
"                              . o $ - I.B f.>.I.@X>Xu.Y Y ;X>X>X>X>X>X>X>X>X>X,X>X>X>X>X>XoXh.7 k.f 8 % X                       ",
"                              . o $ - 0.) &.f.f._.:X[.) % &X>X>X,XoX].].].{.$X,X>X>X>X>X}.z.#.B k.d 8 $ X                       ",
"                                . @ = 2 P.) &.>.I.$X-X(.4.@X-X,X+XY = = = i ~.,X>X<X-X@X1.c m @.e 0.8 $ X                       ",
"                                . o $ - 0 L.^ &.>.!._.).OX@X@X;X) + @ @ @ : c.-X-X&X@Xc.9 x m m 3 9.7 $ o .                     ",
"                                  . o $ 1 q W.X.B n n n <.OX@X@X# @ @ @ % M x.#X@X@X@X<.@ / F m 3 7.8 $ o .                     ",
"                                    . o = 8 a W.Z + + o : U.@X@X# @ @ @ & @.x.#X[.U.U.A @ t.' m 3 9.8 $ o .                     ",
"                                    . . $ - q f 0.+ + : ` >.U.!.Y + + + 8 z.%.U.K.f.f.i <.c.F m 3 7.- $ X                       ",
"                                      . o $ 7 q 9.O + G ;.f.f.f.f.J z i.v.q.*.f.f.f.f.+.z.d.m m 3 0.- $ . .                     ",
"                                        . $ - 0 W.e O M :.f.f.f.f.>.=.Y.K.*.f.f.f.f.f.f.f.f.m 5 0.8 = o .                       ",
"                            f q _       . o = 8 a I . l m >.f.f.f.f.f.f.f.f.f.f.f.f.f.f.f.| m % j.- $ . .                       ",
"                          P + + % _     . o $ 7 p _ V + l F m f.f.f.f.f.f.f.f.f.f.f.f.f.| m , Z.8 - $ .                         ",
"                        P 8 L.K.= V     . o $ 1 q f 2.f # # # F F F F F F | f.f.f.f.| F 5 % C.e 8 % o .                         ",
"                        a 2     - V   . . @ % 1 q d j V + @ + # # # # # # % 1 1 1 1 % # # 9.d q 8 % o .                         ",
"                        I . . . 1 V . X @ $ - 8 q a P . @ @ + : @ # : : @ @ @ # : ; @ ; # X L.a 8 - o .                         ",
"                        . . X o K.1 . . . 2.8 q e P . @ @ + : : @ # : : : ; @ # : ; @ ; : % L.d q - $ .                         ",
"                      . . o $ $ % Q.q : : # . X . ; : # @ : : : + : : 3 6 , # : > : # ; : # < j.d 8 % o .                       ",
"                    . . @ $ - 1 8 0 Q.1 : : : : : : # @ : 6 > : @ 3 r S =.B # r D v ; ; z 3 @ 4 r.q 1 $ o                       ",
"                  . X $ - 1 8 q a d f r.V s , , , # # : D =.S + 6 S =.s.F.B # t { =.x v R t D J Z.f 0 - @ .                     ",
"                . X $ - 8 p d g L.K.K.L.L.j.0 + @ # : r o.o.v # b R ;.R.F.B # C ;.:.x } ;.v ] B./ Z.d 8 % o .                   ",
"                . $ - 0 d j X.+ # # # # @ P ( O # : 6 ..O.x : 6 R >.;.R.F.N 3 R s.M.x -.m.J z { F.b L.q - $ . .                 ",
"            . . $ - 0 d P f @ # : 3 w 6 3 ; # # ; 6 x ] C : 6 R s.F.;.G.,.r y O.m.M.x -.R. .6 v b.] t P.8 = @ . .               ",
"            . @ - 0 d H f ; ; t r z C C z 6 : : : 6 x z t r ] $.R.g.=.*.x : x s.R.s.t E m.-.6 6 R $.v . k.1 $ o .               ",
"          . o = 8 d V _ ; 3 t C C b t t r y t w ; 3 x y v ] =.M.M.$.] v t u W s.R.-.6 z *.;.6 @ r R v + e 8 - $ o .             ",
"        . o $ 1 a V j.; : 3 t t t r 3 6 x z t 3 : S -.,.o.] ] -.] R v 3 : S a.s.m.T : C O.=.3 @ ; x v + # L.1 $ o .             ",
"        . o - 0 f l.< : : : # @ @ @ # 6 r 6 : # y s.n.:.o.C C w 6 6 3 ; 6 } B.=.E 6 r ] g.O.# @ @ w v O # { 8 - $ o .           ",
"      . X $ 1 e l.; : : # @ = l.C.C.0.# ; : ; : R >.O.S y 6 6 @ @ @ # 6 z  .B.{ z : z -.F.@.# @ @ % b u y S q 1 $ o .           ",
"      . o $ 1 Z.# # # O - K.W.~ I P P j.. X O w { ] D r ; @ @ @ @ @ 3 x S b.#.S y w R n.R.E # @ @ @ < < < e E.8 - @ . .         ",
"      . o % ! 8 - - = K.P.~ ! P K V V V W.Q.X.3 ] R r ; @ @ @ @ + 3 v T O.O.D z t b ..n.b.i @ @ @ @ @ @ @ 2 E.8 - $ X .         ",
"    . . @ $ 0 Q.Q.Q.Q.P P P V V j g g j V H 0.3 S D u 1 # @ @ @ @ v T s.O.D b t r } } E T 3 @ @ @ # + @ @ N a 8 - $ X .         ",
"      . o $ - 8 q d f _ P V j X.d a d d f V 6.3 C 3 j.K.K @ # : z { S ] S b r 4 N } v z b 3 @ @ % t.= + # h.q 7 - $ . .         ",
"      . o $ - - 8 q H 8 K.e 1 I 0 q q q a k.% w b 9 L.K K 2 v v C D C b v w ; v $.] w z r % @ @ e V V . 1 2.0 - $ o . .         ",
"      . . o $ = - 7 a e W.e 1 7 1 2 8 8 k.% 3 v u C.H K $.C b b v v x 3 # ; r R ] u @ r 3 @ @ @ Z.h f @ ' 8 1 % $ . . .         ",
"        . . o $ $ - a Z.d ! 1 Q.0.0.0.C.% 1 g g r.h h +.b v 3 3 # # # @ @ u R W u @ % y : @ @ % d d p K j.- % $ o . .           ",
"        . . . o o $ ( _ $ d H P V 2 1 8 d 0.8 0 q e i ..b r # @ @ % a @ 4 S Q N g 0 u v , @ @ l.q q 8 I - * $ o X .             ",
"          . . . . X o o @ @ $ $ 6.V d 2.= - - 1 8 9 V u b C # X d e C.# C N d Z.0 Z.+.y # @ 2.0 8 8 - - $ $ o . .               ",
"              . . . . . . X o o o o @ $ $ $ * = - 1 w w z z d d 7 z % 4 b 5.1 7 8 0 q ! @ @ f 8 7 - % $ $ o . . .               ",
"                  . . . . . . X X o o o $ $ $ $ % & y y w ! 1 & & 3.q.q.w.k.- - 1 7 8 j @ Z 1 - - $ $ @ o X . . .               ",
"                      . . . . . . X o o o $ @ @ $ $ % & & & & & $ $ $ $ $ $ $ % & - - 1 @ - - = $ $ @ o X . .                   ",
"                        . . . . . . X X o o o o o @ $ $ $ $ $ $ o o @ @ @ @ $ $ $ % % 6.+ * $ $ $ o o . . . . .                 ",
"                            . . . . . . o o o X o o @ @ $ $ $ o o o o o o o o $ $ $ $ $ 9.$ $ $ o o . . .                       ",
"                          . . . . . . . X . . X . o X o o o o o o o . . . X o o o o o o o o o o . . . . . .                     ",
"                      .   . . . . . . . . . . . . . . X o X X . . . . . . . . . . X . . . . X X . . . . . .                     ",
"                      .   . . . . . . . . . . . . . . . . . . . . . . . . . . . . . . . . . . . . . . . .                       ",
"                    . .   . . . . . . . . . . . . . . . . . . . . . .   . . . . . . . . . . . . . . . .                         "
};
