/* XPM */
static char *_6e97028b8ac4db4c42062c85231c0e9BzEKX5ZK9mvfNGAE[] = {
/* columns rows colors chars-per-pixel */
"16 16 209 2 ",
"   c #1C101C",
".  c #211522",
"X  c #221824",
"o  c #231624",
"O  c #201420",
"+  c #2C212F",
"@  c #2F2431",
"#  c #291F2A",
"$  c #281D29",
"%  c #201520",
"&  c #1B0F1B",
"*  c #1E111E",
"=  c #1A0C19",
"-  c #180917",
";  c #231824",
":  c #2D222F",
">  c #312734",
",  c #362B39",
"<  c #231524",
"1  c #251B27",
"2  c #2E2632",
"3  c #241B25",
"4  c #1C0F1C",
"5  c #201421",
"6  c #332836",
"7  c #382B3A",
"8  c #2F2332",
"9  c #291C2A",
"0  c #1E101D",
"q  c #291D2B",
"w  c #322835",
"e  c #382F3D",
"r  c #3C3441",
"t  c #251B26",
"y  c #190A18",
"u  c #251B24",
"i  c #1F1320",
"p  c #170716",
"a  c #332A36",
"s  c #423747",
"d  c #3A2E3E",
"f  c #2F2331",
"g  c #221523",
"h  c #1B0D1A",
"j  c #2B1E2C",
"k  c #241925",
"l  c #251A26",
"z  c #28202B",
"x  c #38313D",
"c  c #403845",
"v  c #403A46",
"b  c #2B1F2C",
"n  c #1D121E",
"m  c #413845",
"M  c #463C4C",
"N  c #413545",
"B  c #312533",
"V  c #231725",
"C  c #241A26",
"Z  c #281F2A",
"A  c #1E121E",
"S  c #3E3742",
"D  c #4A4351",
"F  c #564F60",
"G  c #575061",
"H  c #3C2E3F",
"J  c #1E121F",
"K  c #413B46",
"L  c #493F4E",
"P  c #433A49",
"I  c #3F3444",
"U  c #352938",
"Y  c #251826",
"T  c #352A39",
"R  c #3D3341",
"E  c #2D2430",
"W  c #28212B",
"Q  c #403A45",
"!  c #4C4653",
"~  c #483F4C",
"^  c #1D0C1C",
"/  c #1E131F",
"(  c #3F3944",
")  c #463F4D",
"_  c #473D4C",
"`  c #3F3443",
"'  c #271927",
"]  c #3A2E3D",
"[  c #433948",
"{  c #483F4E",
"}  c #48414F",
"|  c #2D2230",
" . c #1F1420",
".. c #221823",
"X. c #1F141F",
"o. c #3E3943",
"O. c #48404E",
"+. c #433B49",
"@. c #3C3241",
"#. c #231623",
"$. c #3A303F",
"%. c #483D4D",
"&. c #49414F",
"*. c #5D5465",
"=. c #342E38",
"-. c #413C46",
";. c #57505F",
":. c #39343E",
">. c #28232B",
",. c #2A242D",
"<. c #37313C",
"1. c #413A47",
"2. c #38303C",
"3. c #1D0F1D",
"4. c #3C3140",
"5. c #473C4D",
"6. c #514759",
"7. c #4C4552",
"8. c #221A23",
"9. c #241B26",
"0. c #494550",
"q. c #5E5767",
"w. c #5C5566",
"e. c #3A343F",
"r. c #221521",
"t. c #251E27",
"y. c #1D111D",
"u. c #221322",
"i. c #2B1F2D",
"p. c #3A2F3D",
"a. c #463D4B",
"s. c #2B242C",
"d. c #343039",
"f. c #4F4855",
"g. c #5D5666",
"h. c #5D5566",
"j. c #3B3740",
"k. c #494250",
"l. c #2A1E2A",
"z. c #2A1F2C",
"x. c #2A1E2C",
"c. c #2E2331",
"v. c #352D39",
"b. c #2A212B",
"n. c #1C0F1B",
"m. c #37313B",
"M. c #443F4A",
"N. c #4F4957",
"B. c #5C5565",
"V. c #5D5464",
"C. c #3B363F",
"Z. c #29202B",
"A. c #2B212E",
"S. c #1D0F1C",
"D. c #1B0E1A",
"F. c #2E2832",
"G. c #413B48",
"H. c #4B4351",
"J. c #514957",
"K. c #595162",
"L. c #5A5162",
"P. c #2F2632",
"I. c #1D101D",
"U. c #211923",
"Y. c #1E0F1D",
"T. c #281C2A",
"R. c #2E2330",
"E. c #302732",
"W. c #362F39",
"Q. c #443B49",
"!. c #4C4352",
"~. c #554C5C",
"^. c #574E5F",
"/. c #281A29",
"(. c #433C49",
"). c #3A323E",
"_. c #39313D",
"`. c #2F2532",
"'. c #211722",
"]. c #1C0E1B",
"[. c #2E2431",
"{. c #49404F",
"}. c #4E4554",
"|. c #302833",
" X c #3F3543",
".X c #3D3442",
"XX c #392E3D",
"oX c #2C212E",
"OX c #1F121E",
"+X c #1B0E1B",
"@X c #1E111D",
"#X c #201621",
"$X c #2E2530",
"%X c #392F3D",
"&X c #3A303E",
"*X c #362939",
"=X c #2E2130",
"-X c #211521",
";X c #2C232E",
":X c #332936",
">X c #332835",
",X c #251926",
"<X c #261D28",
"1X c #332937",
"2X c #342937",
"3X c #342A38",
"4X c #362B3A",
"5X c #352939",
"6X c #312534",
/* pixels */
"  . X o O + @ #   $ % & * * = - ",
"; : > , < 1 2 3 4 3 5 6 7 8 9 0 ",
"q w e r t y u i p 0 a s d , f g ",
"h j k l z x c v b n m M N d B V ",
"C Z * A S D F G H J K L P I U Y ",
"T R r E W Q ! ~ ^ / ( ) _ ` 7 ' ",
"] [ { } |  .....h X.o.O.+.@.6 #.",
"$.%.&.*.=...-.;.:.>.,.<.1.2.5 3.",
"4.5.6.7.8.9.0.q.w.e.A r.t.y.u.i.",
"p._ a.s.  d.f.g.h.j.; k.l.y z.x.",
"c.v.b.n.m.M.N.B.V.C.A <.Z.h A.i.",
"S.0 D.F.G.H.J.K.L.P.I.U.y.= Y.T.",
"R.E.O W.Q.!.~.^.+./.(.)._.`.'.].",
"> [.3.P.2.{.}.x X |. X.XN XXoXOX",
"+XA @XJ OX#X4 h $X%X%X&XXX*X=X-X",
"O ;X:X>X6 ,X= <X1X2X3X4X5X6Xq S."
};
