/* XPM */
static char *_70b2a050d45498fb4413e54c805755edWGOurMTx8u40kGu[] = {
/* columns rows colors chars-per-pixel */
"64 64 225 2 ",
"   c #030107",
".  c #040208",
"X  c #070F12",
"o  c #081214",
"O  c #081112",
"+  c #040309",
"@  c #0C1A1E",
"#  c #0D1C1F",
"$  c #11262C",
"%  c #11252A",
"&  c #0D1D21",
"*  c #0C1B1E",
"=  c #12272D",
"-  c #102429",
";  c #070E11",
":  c #05060B",
">  c #0B171A",
",  c #102328",
"<  c #0B181B",
"1  c #060D10",
"2  c #06080D",
"3  c #060A0E",
"4  c #05020A",
"5  c #06030C",
"6  c #0B191C",
"7  c #06040E",
"8  c #0C1C1F",
"9  c #12272C",
"0  c #132A2F",
"q  c #1A3941",
"w  c #19373F",
"e  c #142C31",
"r  c #12292E",
"t  c #1B3A43",
"y  c #18353D",
"u  c #0B1519",
"i  c #070911",
"p  c #102327",
"a  c #18353C",
"s  c #102428",
"d  c #0A1218",
"f  c #080D13",
"g  c #090F15",
"h  c #070A0F",
"j  c #080F14",
"k  c #0A1217",
"l  c #0C191C",
"z  c #0F2226",
"x  c #112529",
"c  c #1A3740",
"v  c #080811",
"b  c #080A11",
"n  c #080C13",
"m  c #0E1E21",
"M  c #0F2024",
"N  c #152D33",
"B  c #163036",
"V  c #18343B",
"C  c #18333B",
"Z  c #152F36",
"A  c #152E35",
"S  c #142B31",
"D  c #0B181C",
"F  c #080B12",
"G  c #0B171C",
"H  c #173239",
"J  c #0E1F23",
"K  c #0C181D",
"L  c #080D14",
"P  c #0C1A1F",
"I  c #0D1B20",
"U  c #0A1619",
"Y  c #11262B",
"T  c #163238",
"R  c #163237",
"E  c #0E1F22",
"W  c #214953",
"Q  c #214752",
"!  c #080912",
"~  c #0E1E22",
"^  c #163037",
"/  c #12282D",
"(  c #152F34",
")  c #142D32",
"_  c #142C32",
"`  c #132B31",
"'  c #19333E",
"]  c #18303A",
"[  c #070710",
"{  c #152E34",
"}  c #13292E",
"|  c #0F2125",
" . c #0E1D22",
".. c #102027",
"X. c #1B3C44",
"o. c #102127",
"O. c #173339",
"+. c #132B2F",
"@. c #0D1D20",
"#. c #234D58",
"$. c #20454F",
"%. c #153035",
"&. c #1B3A42",
"*. c #1B3B44",
"=. c #19353F",
"-. c #090E14",
";. c #070A11",
":. c #0B161A",
">. c #11262A",
",. c #1C3E46",
"<. c #1D414A",
"1. c #1C3E47",
"2. c #0F1F25",
"3. c #091114",
"4. c #17333A",
"5. c #224B56",
"6. c #07060F",
"7. c #204751",
"8. c #12282E",
"9. c #091416",
"0. c #152F35",
"q. c #13292F",
"w. c #0B151A",
"e. c #091117",
"r. c #06040D",
"t. c #0D1C20",
"y. c #1D3F48",
"u. c #19353D",
"i. c #132B30",
"p. c #0A1017",
"a. c #0C131B",
"s. c #17323A",
"d. c #1A3840",
"f. c #080C12",
"g. c #091016",
"h. c #17313A",
"j. c #090A14",
"k. c #090C15",
"l. c #152D34",
"z. c #080911",
"x. c #0F2026",
"c. c #102228",
"v. c #112329",
"b. c #0E1B21",
"n. c #142B32",
"m. c #11252B",
"M. c #0F1F26",
"N. c #091316",
"B. c #06060E",
"V. c #080A12",
"C. c #090B14",
"Z. c #080A13",
"A. c #07070F",
"S. c #070810",
"D. c #0C181C",
"F. c #19363E",
"G. c #152B32",
"H. c #18343C",
"J. c #1E414A",
"K. c #162C36",
"L. c #1F444E",
"P. c #11272B",
"I. c #1A3942",
"U. c #1C3C45",
"Y. c #0E2024",
"T. c #0C191E",
"R. c #19373E",
"E. c #1C3D46",
"W. c #224A54",
"Q. c #1B3842",
"!. c #1C3A45",
"~. c #12272B",
"^. c #0C1B1F",
"/. c #19353E",
"(. c #1F434C",
"). c #0B0F19",
"_. c #090C16",
"`. c #163138",
"'. c #1F454E",
"]. c #0E2023",
"[. c #0E1E23",
"{. c #162D36",
"}. c #07060E",
"|. c #19363F",
" X c #080711",
".X c #234C56",
"XX c #0C161D",
"oX c #172E38",
"OX c #152832",
"+X c #19383F",
"@X c #0C1A1D",
"#X c #091116",
"$X c #1B3B43",
"%X c #102226",
"&X c #112429",
"*X c #0D1B1F",
"=X c #132931",
"-X c #142932",
";X c #12262C",
":X c #193840",
">X c #1D4049",
",X c #06060C",
"<X c #1D3F47",
"1X c #0F1D23",
"2X c #090D15",
"3X c #0F1F24",
"4X c #101B25",
"5X c #1D3F49",
"6X c #12222B",
"7X c #1C3D45",
"8X c #091215",
"9X c #0D161F",
"0X c #1C3C46",
"qX c #102227",
"wX c #0D171F",
"eX c #080C10",
"rX c #06050E",
"tX c #0A1419",
"yX c #0F2126",
"uX c #090D14",
"iX c #1E424C",
"pX c #06090F",
"aX c #1E414B",
"sX c #060F11",
"dX c #05040A",
/* pixels */
"  . X o o o o o o o o o o O + + O o @ # $ % # & $ % * & = - o o o ; . : o > = , * < o o o 1 . . . 2 o o o 3 . . . . . . . . . 3 ",
"4 5 > * * * * * * * * * * 6 7 7 6 8 9 0 q w 0 e q w r e t y * * * u 5 i * p t a r s * * * d 5 5 5 f * * * g 5 5 5 5 5 5 5 5 5 h ",
"j k l * z s s x 0 0 & & q c v 5 b n m M N B V C Z B a C A S * D F f k G s 0 t H J K F F F L k k k P s s s I k k k k k F 5 5 5 h ",
"U * * * Y r r 0 T R E E W Q ! 5 5 7 6 8 9 e q w 0 e t w r Y * > 5 i * ~ r N t ^ * d 5 5 5 F * * * M r r r z * * * * * g 5 5 5 h ",
"U * z s / r ( B ) _ ` ` S _ ' ] [ 5 b n m z N { } 0 A _ J ~ * > 5 i * 8 J | %  .F L k k k ..X.X.X.q a a a H ^ ^ ^ ^ ^ o.k b 5 h ",
"U * Y r r r T O.+.0 T R @.E W Q ! 5 5 7 6 @.9 r r r r Y * * * > 5 i * * * * * d 5 F * * * e #.#.#.$.t t t t t t t t t ` * f 5 h ",
"U * Y r ( B ) _ %.B O.O.e _ &.*.=.] [ 5 b -.m | / 9 J ~ * D F ;.5 7 F g * > F L k :.* >.X.,.<.<.<.1.t t t t t t t t t y ^ 2.k 3.",
"U * Y r T 4.+.0 T 4.4.4.4.4.4.a 5.Q ! 5 5 6.6 @.9 Y * * * > 5 5 5 5 5 i * u 5 F * * * e #.7.t t t t t t t t t t t t t t t 8.* 9.",
"- ` 0.B ) _ %.B O.4.4.4.4.4.4.O._ q.w.e.r.r.b -.m t.F F F ;.5 5 5 5 5 7 F f k K s s s { <.y.t t t u.A C t t t t t t t t t 8.* 9.",
"i.4.4.4.+.r T 4.4.4.4.4.4.4.4.R @.* * 6 7 5 5 6.6 > 5 5 5 5 5 5 5 5 5 5 5 i * J r r r A t t t t t 4.r ^ t t t t t t t t t 8.* 9.",
"p.a.s.d.R B O.4.4.4.4.4.4.4.4.R @.l f.b 5 5 5 6.6 l k k k k k g.5 5 5 5 5 i * J r r r A t t t t t d.a w t t t t t t t a A p * 9.",
"4 5 h.t a 4.4.4.4.4.4.4.4.4.4.R @.6 7 5 5 5 5 6.6 * * * * * * > 5 5 5 5 5 i * J r r r A t t t t t t t t t t t t t t t H r M * 9.",
"4 5 j.k.l.4.4.T z E E E E E E & i z.x.c.c.c.c.v.>.Y Y Y Y Y Y % c.b.5 5 5 i * J r { w q t t t t t t t t t t t t t 4.e H w 9 * 9.",
"4 5 5 5 n.4.4.R E * * * * * * 6 7 6.m.r r r r r r r r r r r r r r M.5 5 5 i * J r A t t t t t t t t t t t t t t t H r H t 8.* 9.",
"N.> B.5 V.C.C.Z.A.6.6.6.6.6.6.S.:.D.9 r r ` F.w w w w w w w w w w G.5 5 5 i * J r A t u.e ^ t t t H.e H t t t t t J.7.J.t 8.* 9.",
"U * 6.5 5 5 5 5 5 5 5 5 5 5 5 7 6 8 9 r r e q t t t t t t t t t t K.5 5 5 i * J r A t a r A t t t 4.r ^ t t t t t L.#.L.t 8.* 9.",
"U * < > > > > u B.5 5 5 5 r.u D x P.r 0 F.u._ { I.t t t t t t t t K.5 5 5 i * J r 0 e B w q t t t I.w q t t t t t U.1.U.t 8.* 9.",
"U * * * * * * 6 6.5 5 5 5 7 6 8 9 r r 0 q w 0 e q t t t t t t t t K.5 5 5 i * J r r r A t t t t t t t t t t t t t t t t t 8.* 9.",
"Y.Y Y Y Y Y Y x T.> > u r.7 6 8 9 0 F.R._ { R.d.t t t t t t t E.W.Q.5 5 5 i * J r { w C e ^ t H.e H t t t t t t t t t t t 8.* 9.",
"z r r r r r r 9 @.* * 6 7 7 6 8 9 0 q q 0 e q t t t t t t t t 1.#.!.5 5 5 i * J r A t a r A t 4.r ^ t t t t t t t t t t t 8.* 9.",
"A w w w w w ` r ~.9 4.4.T.:.S.S.^.& Y.z /.u._ { I.t t E.W.(.Y. .)._.5 5 5 i * J r 0 e B w C e ^ w q t t t t t t t t t t t 8.* 9.",
"`.t t t t t e r r 0 w d.& 6 7 7 6 * * & d.w 0 e q t t 1.#.'.* > 5 5 5 5 5 i * J r r r A t a r ^ t t t t t t t t t t t t t 8.* 9.",
"`.t t t t t d.w w R.{ _ H.4.T.:.S.6.6.i ~ ].& & Y.Y.Y.M p [.6.B.5 5 5 5 5 i * J r r r 0 e B w 4.e H t H.e 4.t t t t t t t 8.* 9.",
"`.t t t t t t t t q e 0 q d.& 6 7 5 5 7 6 * * * * * * * * > 5 5 5 5 5 5 5 i * J r r r r r A t 4.r ^ t 4.r H t t t t t t t 8.* 9.",
"`.t t t { e d.t t t d.R._ _ H.a s.{.6.5 }.6.6.6.6.6.6.6.6.B.5 5 5 5 5 5 5 i * J r r r { w C e ^ w 4.e ^ w q t t t t t t t 8.* 9.",
"`.t t t e r w t t t t q 0 0 q t t |. X5 5 5 5 5 5 5 5 5 5 5 5 5 5 5 5 5 5 i * J r r r A t a r ^ t 4.r ^ t t t t t t t t t 8.* 9.",
"`.t t t W.#.1.q e 0 w t t q 0 9 8 6 7 7 6 * * * * * * * * * * * * u 5 5 5 i * J r r r r r A t 4.r ^ t 4.r r r r r r r z * f 5 h ",
"`.t t t W.#.1.q e 0 w t t q 0 9 8 6 7 7 6 * * * * * * * * * * * * u 5 5 5 i * J r r r r r A t 4.r ^ t 4.r r r r r r r z * f 5 h ",
"`.t t t t t t t t t t t t U..XW.e 9 8 6 7 6.6 @.9 r r e t t t y * * * * * * * * * * * J r r r ^ t 4.r ^ t H r z * * * g 5 5 5 h ",
"`.t t t t t t t t t t t t U..XW.e 9 8 6 7 6.6 @.9 r r e t t t y * * * * * * * * * * * J r r r ^ t 4.r ^ t H r z * * * g 5 5 5 h ",
"`.t t t t t t q e 0 w t t U..XW.e 9 8 6 7 6.6 @.9 r r e t t t t t F.r % * u 5 5 5 F * * * * * M r r r r r r r XX5 5 5 5 5 oX#.q.",
"`.t t t t t t q e 0 w t t U..XW.e 9 8 6 7 6.6 @.9 r r e t t t t t F.r % * u 5 5 5 F * * * * * M r r r r r r r XX5 5 5 5 5 oX#.q.",
"`.t t t t t t t t t t U..XW.e 9 8 6 7 5 5 6.6 @.9 e t t t t t t t t t F.r % * * * d 5 5 5 5 5 f * * * * * g 5 5 5 5 5 OX#.+Xr @X",
"`.t t t t t t t t t t U..XW.e 9 8 6 7 5 5 6.6 @.9 e t t t t t t t t t F.r % * * * d 5 5 5 5 5 f * * * * * g 5 5 5 5 5 OX#.+Xr @X",
"`.t t t t t t t t U.W.W.e 9 8 * * 6 7 7 6 * * @.9 r r e t t t t t t t F.r % * d 5 5 5 F * * * * * #X5 5 5 5 5 5 5 OX#.$Xr r r @X",
"`.t t t t t t t t U.W.W.e 9 8 * * 6 7 7 6 * * @.9 r r e t t t t t t t F.r % * d 5 5 5 F * * * * * #X5 5 5 5 5 5 5 OX#.$Xr r r @X",
"`.t t t t t t t t q e 9 8 * * 6 7 5 5 7 6 @.9 r r e t t t t t t t t t F.r % * d 5 F * % t t t l.* #X5 5 5 5 5 g * z r r r 4.t %X",
"`.t t t t t t t t q e 9 8 * * 6 7 5 5 7 6 @.9 r r e t t t t t t t t t F.r % * d 5 F * % t t t l.* #X5 5 5 5 5 g * z r r r 4.t %X",
"z r w t t t t t t q e 9 8 6 7 5 5 7 6 8 9 r r e q w r e t t t t t t t F.r % * d 5 F * % t a r ^ t l.* #X5 g * z r r r H t ^ r @X",
"&Xe u.w w w w w w F.} x D u r.5 }.S.^.m 9 r r ` F.u.e { t t t t t t t F.r % * d 5 F * &Xw C e ^ w S * #X5 g * M Y } e H w ^ e *X",
"`.t e r r r r r r 9 @.6 7 5 5 7 6 8 9 r r r r r r e t t t t t t t t t F.r % * d 5 F * J r A t 4.r p * #X5 g * * * ` t H r 4.t %X",
"=Xh._ e e e 9 Y Y x T.u r.5 }.S.^.m 9 r S ` r } S { w d.t t t t t t t F.r % * d 5 b > t.Y S y Z Y M > -.5 f > 6 * ` t 4.e H.t %X",
"4 5 h.t t t Y.* * 6 6.5 5 7 6 8 9 r r 0 q w 0 e q w r e t t t t t t t F.r % * d 5 5 5 F * * * * * #X5 5 5 5 5 g * ` t t t t t %X",
"4 5 -Xh.h.h.I > > u B.5 }.S.^.m 9 r S _ R.u._ { R.u.e { t t t t t *.1.q r &X> g.5 5 5 b > D * 6 > -.5 5 5 5 5 f > ;Xy :Xt t t %X",
"4 5 5 5 5 5 5 5 5 5 5 7 6 8 9 r r 0 q q 0 e q w 0 e t t t t t t t >X#.L.r M.5 5 5 5 5 5 5 F * #X5 5 5 5 5 5 5 5 5 g * ` t t t %X",
",X6.6.6.6.6.5 5 5 5 B.S.^.m 9 r r 0 F.R._ { R.u._ { t t t t t t t 1.7.<XY 1X5 r.6.6.6.6.6.L * k 6.6.6.6.6.r.5 5 5 f > ;Xy q t %X",
"U * * * * * 6.5 5 7 > 8 9 r r r r r r 0 q w 0 e q t t t t t t t t F.r % * u 5 F * * * * * * * * * * * * * g 5 5 5 5 5 g * l.t %X",
"< @.@.@.@.@.V.}.5 7 > 8 9 r r r r r S _ R.u._ { I.t t t t t t *.1.q r &X> k 5 2Xp | @.@.@.@.@.@.@.@.@.@.@.k 6.6.6.6.6.g > q.y 3X",
"z r r r r r @.6 6.7 > 8 9 r r r r 0 q q 0 e q t t t t t t t t 1.#.L.r M.5 5 5 4X#.<.r r r r r r r r r r r z * * * * * g 5 #X* 9.",
"z r ` e e e & 6 6.7 > 8 9 r r r S _ R.R._ { I.t t t t t t *.1.5X7.<XY 1X5 6.).6X7.7Xr 0 e i.r 0 e e e e e &X@.@.@.8 * #X6.g.> 8X",
"z r w t t t Y.6 6.7 > 8 9 r r 0 q q 0 0 q t t t t t t t t 1.#.7.r % * u 5 9X#.<.r r r A t a r ^ t t t t t H r r r z * * * f 5 h ",
"&Xe u.w &.t Y.6 6.7 > 8 9 r r 0 F.R._ ) I.*.E.1.1.1.1.0Xw &.7.J.Y qX> d 6.wX7.7Xr 0 e B w C e H t t t t t 4.e e e &X@.8 * g 6.eX",
"`.t e r w t Y.6 6.7 > 8 9 r r r r 0 q t t 1..X#.#.#.#.7.r r r Y * u 5 i * ~ r r r A t a r A t t t t t t t t t t t H r z * * * 9.",
"8.^ 0.A B ^ K e.rXr.g.tXqXs s s s x Z ^ H.R.>X<.<.>XX.:Xs s s yXk #XF g.J z r i.A ^ a 4.A ^ a w t t t t t t t t t H r s J @.* 9.",
"U * y t Y.* 6.5 5 5 5 7 6 * * * * * * 8 9 r r r r Y * * * * * > 5 i * ~ r r r A t a r A t a r ^ t t t t t t t t t H r r r M * 9.",
"j k S ^ K k rX5 5 5 5 r.e.k k k k k k tXqXs s s s yXk k k k k e.F g.J z r 0 A ^ a 4.A ^ a 4.A C t t t t t t t t t a A e r M * 9.",
"4 5 > * 6.5 5 5 5 5 5 5 5 5 5 5 5 5 5 7 6 * * * * > 5 5 5 5 5 6.* ~ r r r N t a r A t a r A t t t t t t t t t t t t t H r M * 9.",
"4 5 g.k f.F F F F F F F F F F F F F F F k k k k k g.5 5 5 r.F -.J z r 0 A ^ a 4.A ^ a 4.A 4.t t t d.a w t t t t t t t H r M * 9.",
"4 5 5 5 > * * * * * * * * * * * * * * 6 7 5 5 5 5 5 5 5 5 6.* @.r r r N t F.r A t a r A t t t t t 4.r ^ t t t t t t t H r M * 9.",
"4 5 ;.F t.J J J J Y.&Xx Y.Y.x x Y.Y.x , uX;.5 5 5 5 5 r.F -.J | r 0 A ^ a 4.A ^ a 4.A 4.t t t t t d.a w t t t t t w a _ s P k 3.",
"4 5 > * Y r r r r 0 w q 0 0 q q 0 0 q d.& > 7 5 5 5 5 6.* @.r r r N t F.r N t a r A t t t t t t t iX#.$.t t t t t H r z * f 5 h ",
"pXF t.J 9 r r } { Z C V Z Z V V Z B I.q 9 yXuX;.5 r.F -.J | r 0 A ^ a 4.A ^ a 4.A 4.t t t t t t t >X7.aXt t t t t H r z * f 5 h ",
"U * Y r r r r 0 w q e 0 q q 0 0 q t t t t y & > 7 6.* @.r r r e t F.r N t F.r A t t t t t t t t t t t t t t t t t H r z * f 5 h ",
"sXo l * * * * # % $ & # $ $ # # $ = = = = - 9.X + dXo N.* * * & = &X* ~ = &X* J = = = = = = = = = = = = = = = = = yX* U o 2 . 3 "
};
