/* XPM */
static char *fac26c5640b44934c050cd03c50c391dS6BPtwGWcLBCLh5h[] = {
/* columns rows colors chars-per-pixel */
"16 16 14 1 ",
"  c None",
". c #3F4B1F",
"X c #231C19",
"o c #495A22",
"O c #3A231F",
"+ c #33211D",
"@ c #242B33",
"# c #A0FCD8",
"$ c #10D3C3",
"% c #1498DC",
"& c #636B85",
"* c #3D4857",
"= c #AEB4CE",
"- c white",
/* pixels */
"  @@@@@@@@@@@@.X",
" @############@o",
"@#####$$$$#$###@",
"@#$###$#$$$$$##@",
"@#$###$$$%%$$$#@",
"@%$$$$$$$%%$$$%@",
"@%%$$$%$$$$$$%%@",
"@@%%%%%%%%%%%%@@",
"@@@@@@@@@@@@@@@@",
"@&************&@",
"@=&=&&&&&&&&&==@",
"@=&&&&&&&**&&&=@",
"@=&&**&&&**&*&=@",
"@*&&**&&&&&&&&*@",
" @************@O",
"  @@@@@@@@@@@@+X"
};
